# xmcd
#
# Track frame offsets: 
#        150
#        21467
#        33747
#        47471
#        62561
#        81344
#        101024
#        114619
#        129221
#        143075
#        163200
#        181285
#        197633
#
# Disc length: 2684 seconds
#
# Revision: 5
# Processed by: cddbd v1.4PL0 Copyright (c) Steve Scherf et al.
# Submitted via: ExactAudioCopy v0.90b4
#
DISCID=b30a7a0d
DTITLE=Cory Morrow - The Man That I've Been
DYEAR=1998
DGENRE=Country
TTITLE0=Texas Time Travelin'
TTITLE1=World Through A Windshield
TTITLE2=The Way Things Used To Be
TTITLE3=The Man That I've Been
TTITLE4=Nashville Blues
TTITLE5=Just Like You (Grandpa's Song)
TTITLE6=Broken Picture Frame
TTITLE7=I'm Not Comin' Home Tonight
TTITLE8=Stayin' Out Late
TTITLE9=Big City Stripper
TTITLE10=Drink One More Round
TTITLE11=Songwriter's Lament (A Poem)
TTITLE12=Untitled (Hidden Track)
EXTD=YEAR: 1998 ID3G:   2
EXTT0=
EXTT1=
EXTT2=
EXTT3=
EXTT4=
EXTT5=
EXTT6=
EXTT7=
EXTT8=
EXTT9=
EXTT10=
EXTT11=
EXTT12=
PLAYORDER=
